<svg id="Layer_1" data-name="Layer 1" xmlns="http://www.w3.org/2000/svg" viewBox="0 0 411.73 299.87"><defs><style>.cls-1{fill:#7d7d7d;}</style></defs><title>newlogogrey</title><path class="cls-1" d="M104.93,239.71q-2.39,4.08-5,8C82.86,273,58.24,291.76,29.72,300.07a115.24,115.24,0,0,1-14.63,3.28,152.42,152.42,0,0,1-7.76-16.44,116.36,116.36,0,0,0,17.08-2.82c27.09-6.55,51-22.47,68.65-44.5q3.31-4.11,6.3-8.49,1.31,1.76,2.69,3.46l0,0h0c.72,1.36,1.68,2.2,2.45,3.53l0,.32s-.27.19-.28.19.27.5.38.69l-.15-.31Z" transform="translate(-7.33 -4.37)"/><path class="cls-1" d="M104.67,239.32c-.11-.19-.33-.57-.38-.69l0,0,.21.36Z" transform="translate(-7.33 -4.37)"/><path class="cls-1" d="M419.06,286.91a152.42,152.42,0,0,1-7.76,16.44,115.78,115.78,0,0,1-14.64-3.28c-28.52-8.32-53.13-27.11-70.2-52.39q-2.62-3.88-5-8c-.48-.82-1.07-1.85-1.74-3.06l-1.13-2.09q-1.12-2.1-2.17-4.25h0c-23.42-34.55-60.93-57-103.23-57s-79.8,22.4-103.22,57q-2.18-4.44-4.62-8.69c-.16-.28-.32-.56-.49-.83,22.82-39.15,62.81-65.1,108.33-65.1s85.53,25.95,108.34,65.1l0,.07c.13.21.33.47.46.69,1.64,2.82,3.32,6,4.76,9,0,0,0,0,0,0l.3.42c1.9,2.79,4.21,6.13,6.23,8.64,17.68,22,41.56,38,68.64,44.5A119.46,119.46,0,0,0,419.06,286.91Z" transform="translate(-7.33 -4.37)"/><path class="cls-1" d="M326.79,230.51l-.09-.13" transform="translate(-7.33 -4.37)"/><path class="cls-1" d="M213.93,287.22c-52.91.32-86.21-34-98.6-49.53C138.89,268,174,287.27,213.19,287.27c38.77,0,73.52-18.82,97.07-48.57C297.43,254.57,265,286.92,213.93,287.22Z" transform="translate(-7.33 -4.37)"/><path class="cls-1" d="M321.46,239.71c-5.95,10.6-15.18,25.93-32.53,38.23-2.44,1.74-12.56,10.85-27,16.34-4.2,1.61-23.71,9.91-48.77,10-23.2.05-41.76-8.09-48.34-10.47-7.43-2.67-15.46-8.22-26.4-16a135.7,135.7,0,0,1-33.52-38s-.23-.4-.35-.59l.09.2c-.11-.19-.33-.57-.38-.69l0,0v0l-2.24-4h0l0,0q-1.38-1.71-2.69-3.46c-2.69-4-5.11-8.45-8.17-12.09v0A133.48,133.48,0,0,0,69.8,198.57,123.68,123.68,0,0,0,24,176.7l-.07,0c0-.09.07-.24.1-.33,1.51-5.42,1.52-10.9,3.51-16.12,12,3.48,25.38,9.13,35.73,16L65,177.44l1.72,1.21c1.72,1.23,3.42,2.51,5.08,3.83s3.29,2.67,4.88,4.07h0a137.47,137.47,0,0,1,28.13,34.22c.17.27.33.55.49.83q2.45,4.24,4.62,8.69h0c.39.62,1.91,2.95,4.55,6.34l.81,1c12.39,15.58,45.69,49.85,98.6,49.53,51.09-.3,83.5-32.65,96.33-48.52l.44-.54a92.31,92.31,0,0,0,5.72-7.85q1.05,2.15,2.17,4.25l1.13,2.09C320.39,237.86,321,238.89,321.46,239.71Z" transform="translate(-7.33 -4.37)"/><path class="cls-1" d="M402.1,176.71a124.92,124.92,0,0,0-44.54,21.8h0A133.4,133.4,0,0,0,336.13,219c-3,3.56-6.39,8.05-9,11.94l-.3-.42s0,0,0,0c-1.44-2.95-3.12-6.15-4.76-9-.13-.22-.33-.48-.46-.69,7.6-13,18.09-24.75,29.06-34.34a127.76,127.76,0,0,1,13.44-10.31,125.35,125.35,0,0,1,33.76-15.59Q400.2,168.55,402.1,176.71Z" transform="translate(-7.33 -4.37)"/><path class="cls-1" d="M418.93,173.38c-.23-.56-.46-1.11-.68-1.66.19.56.39,1.11.58,1.67a97.54,97.54,0,0,0-16.72,3.38s0,0,0-.06q-1.91-8.18-4.27-16.1c-.35-1.19-.71-2.37-1.08-3.55-11.5-36.76-30.29-69.17-54.22-94.63a152.44,152.44,0,0,1,23.85,82.11,158.65,158.65,0,0,1-3.2,32.26,131.45,131.45,0,0,0-13.53,10.58,149.87,149.87,0,0,0,6.21-42.84A143.67,143.67,0,0,0,279.17,17.22l0,0-.27-.14a93.77,93.77,0,0,0-6.57-12.69Q279,6.65,285.42,9.42h0c61.92,26.48,111,86,132.8,161.16l0,.06c.26.91.52,1.81.78,2.73Z" transform="translate(-7.33 -4.37)"/><path class="cls-1" d="M310.26,238.7c-23.55,29.75-58.3,48.57-97.07,48.57-39.2,0-74.3-19.24-97.86-49.58,12.39,15.58,45.69,49.85,98.6,49.53C265,286.92,297.43,254.57,310.26,238.7Z" transform="translate(-7.33 -4.37)"/><path class="cls-1" d="M154.1,4.37a91.54,91.54,0,0,0-6.57,12.69l-.28.14,0,0a144.35,144.35,0,0,0-70.5,169.33q-2.39-2.1-4.88-4.07c-1.66-1.32-3.36-2.6-5.08-3.83-1.14-.82-2.3-1.62-3.47-2.4-.27-1.28-.52-2.56-.76-3.85s-.42-2.38-.61-3.57c-.24-1.48-.45-3-.65-4.45-.4-3.17-.72-6.36-.93-9.58Q60,149.71,60,144.54a152.76,152.76,0,0,1,7.45-47.3c.14-.44.28-.88.43-1.31s.27-.82.42-1.23c.36-1,.73-2.09,1.12-3.13A152.29,152.29,0,0,1,83.83,62.46,224.69,224.69,0,0,0,63,88.28c-1.15,1.66-2.29,3.34-3.4,5-.23.35-.46.7-.68,1.06-1.13,1.73-2.24,3.47-3.31,5.24A249.22,249.22,0,0,0,42.48,124a262.08,262.08,0,0,0-12.85,33.09c-.37,1.18-.73,2.37-1.08,3.56s-.79,2.65-1.15,4q-1.71,6-3.13,12.17-2-.6-4.11-1.11a98.93,98.93,0,0,0-12.6-2.26h0c.19-.56.4-1.11.59-1.67-.22.55-.46,1.1-.68,1.66H7.35c.26-.92.52-1.82.79-2.73l0-.06C30,95.44,79,35.9,141,9.42h0Q147.44,6.65,154.1,4.37Z" transform="translate(-7.33 -4.37)"/><path class="cls-1" d="M76.73,186.56h0q-2.4-2.12-4.89-4.09,2.49,2,4.88,4.07Z" transform="translate(-7.33 -4.37)"/></svg>