<?xml version="1.0" standalone="no"?>
<!DOCTYPE svg PUBLIC "-//W3C//DTD SVG 20010904//EN"
 "http://www.w3.org/TR/2001/REC-SVG-20010904/DTD/svg10.dtd">
<svg version="1.0" xmlns="http://www.w3.org/2000/svg"
 width="261.000000pt" height="266.000000pt" viewBox="0 0 261.000000 266.000000"
 preserveAspectRatio="xMidYMid meet">
<metadata>
Created by potrace 1.15, written by Peter Selinger 2001-2017
</metadata>
<g transform="translate(0.000000,266.000000) scale(0.100000,-0.100000)"
fill="url(#pattern)" stroke="none">
<path d="M0 2638 c0 -7 16 -40 36 -73 43 -70 54 -89 126 -215 30 -52 112 -194
183 -315 70 -121 136 -233 145 -250 10 -16 41 -70 70 -120 29 -49 62 -108 75
-130 12 -22 62 -107 110 -190 48 -82 96 -163 105 -180 10 -16 36 -62 59 -101
l41 -71 0 -491 0 -492 23 -5 c12 -3 168 -4 347 -3 l325 3 5 495 c5 448 7 498
22 522 10 15 27 43 38 62 23 42 13 24 220 381 180 311 192 331 219 378 10 17
58 100 106 182 48 83 96 164 105 180 10 17 42 73 72 125 31 52 82 142 116 200
33 57 58 108 56 112 -3 4 -180 8 -394 8 l-388 0 -30 -62 c-17 -35 -112 -229
-212 -433 -101 -203 -202 -412 -226 -462 -23 -51 -47 -93 -51 -93 -4 0 -15 15
-22 33 -13 28 -213 437 -422 862 l-74 150 -392 3 c-311 2 -393 0 -393 -10z"/>
</g>
</svg>
